<!-- Generator: Adobe Illustrator 21.0.2, SVG Export Plug-In  -->
<svg version="1.1"
	 xmlns="http://www.w3.org/2000/svg" xmlns:xlink="http://www.w3.org/1999/xlink" xmlns:a="http://ns.adobe.com/AdobeSVGViewerExtensions/3.0/"
	 x="0px" y="0px" width="277.18px" height="62.241px" viewBox="0 0 277.18 62.241"
	 style="enable-background:new 0 0 277.18 62.241;" xml:space="preserve">
<style type="text/css">
	.st0{fill:url(#SVGID_1_);}
	.st1{fill:#FFFFFF;}
	.st2{fill:#BE1E2D;}
	.st3{fill:url(#SVGID_2_);}
</style>
<defs>
</defs>
<g>
	<linearGradient id="SVGID_1_" gradientUnits="userSpaceOnUse" x1="37.4168" y1="55.076" x2="37.4168" y2="0">
		<stop  offset="0" style="stop-color:#F7941D"/>
		<stop  offset="0.0093" style="stop-color:#F7921E"/>
		<stop  offset="0.1624" style="stop-color:#F37221"/>
		<stop  offset="0.3099" style="stop-color:#F15523"/>
		<stop  offset="0.4485" style="stop-color:#EF3B24"/>
		<stop  offset="0.5747" style="stop-color:#EE2624"/>
		<stop  offset="0.6772" style="stop-color:#ED1C24"/>
	</linearGradient>
	<path class="st0" d="M74.78,26.809c-4.309-0.125-4.883-0.717-6.224-1.419c-1.596-0.867-2.721-1.359-6.299-3.628
		c-2.151-1.363-3.907-2.507-7.668-4.083l-0.959-0.931l-0.762-0.686c0,0-1.275-2.512-2.859-4.181
		c-1.581-1.672-3.958-1.269-3.958-1.269C39.635,7.9,43.916,5.919,42.52,4.892c-0.156,0.232-0.298,1.252-1.004,1.727
		c-0.54,0.363-0.797,0.303-1.529,0.491c-0.888,0.226-2.604,2.208-2.884,2.614c3.343-1.697,5.293,2.41,6.373,4.706
		c0.853,1.817,2.137,3.654,4.505,4.275c-1.209-0.01-3.158,0.008-5.87,0.057l-7.312,0.178l-9.011,0.113
		c-0.182,0.003-0.347,0.012-0.522,0.017c4.217-3.695,7.696-7.575,10.421-11.64c0.111,0.045,0.228,0.104,0.341,0.153
		c0.761-1.1,1.526-2.195,2.266-3.308c-0.191-0.172-0.376-0.341-0.539-0.499c0.475-1.058,0.583-1.957,0.321-2.694
		c-0.259-0.737-0.821-1.098-1.686-1.082c-1.297,0.022-2.327,1.248-3.086,3.67c-1.295,3.608-4.747,7.595-10.357,11.957
		C17.4,19.993,11.457,22.91,5.117,24.383c-2.214,0.534-3.628,1.162-4.231,1.883c-0.606,0.721-0.901,1.484-0.886,2.287
		c0.022,1.36,1.798,2.007,5.32,1.945c3.082-0.055,7.389-2.028,12.911-5.909c0.073,0.683,0.214,1.641,0.428,2.889
		c0.309,1.818,0.496,4.488,0.558,8.011l0.072,9.175c0.065,3.709,0.604,6.17,1.615,7.387c1.01,1.281,3.187,1.983,6.525,2.11
		c3.266,0.156,6.622,0.276,9.487,0.47c1.055-0.002,1.526,0.003,2.517,0.012c3.366,0.034,6.434,0.163,9.199,0.377
		c1.029,0.083,2.037,0.075,3.021-0.021c0.987-0.097,1.982-0.501,2.991-1.21c1.057-0.713,2.333-2.245,3.823-4.589
		c1.592-2.416,2.348-4.019,2.274-4.805c-0.054-0.543-0.322-0.792-0.803-0.746c-0.477,0.049-0.968,0.278-1.464,0.692
		c-3.975,3.324-9.509,5.334-16.594,6.032c-1.495,0.147-3.003,0.248-4.529,0.307c-0.481,0.017-0.607-0.012-1.088,0.003
		c-1.107-0.044-2.213-0.084-3.336-0.142c-3.591-0.306-5.79-0.639-6.598-0.995c-0.874-0.356-1.472-0.962-1.796-1.822
		c-0.191-0.428-0.358-1.074-0.498-1.938c-0.139-0.862-0.264-1.863-0.377-3.006c-0.114-1.14-0.196-2.375-0.251-3.703
		c-0.055-1.328-0.094-2.702-0.119-4.124c-0.112-6.176,0.225-9.768,1.012-10.772c0.71-0.894,4.59-1.461,10.623-1.71
		c0,0.004,0.044,0.005,0.044,0.008c0.772-0.024,2.828-0.113,3.681-0.128l2.226-0.04c0.8-0.014,1.667,0.001,2.595,0.044
		c1.917,0.092,3.188,0.378,3.815,0.86c0.689,0.543,1.046,1.435,1.068,2.67c0.018,1.05-0.199,2.816-0.647,5.295
		c-0.393,2.232-1.168,3.885-2.323,4.953c-1.093,1.072-2.595,1.748-4.505,2.028c-1.912,0.284-2.862,0.669-2.854,1.164
		c0.009,0.495,0.389,0.89,1.134,1.186c0.806,0.294,2.014,0.426,3.622,0.399c1.669-0.03,3.574-0.62,5.717-1.771
		c2.141-1.151,3.373-3.212,3.691-6.184c0.265-2.352,0.554-4.335,0.866-5.95c0.312-1.611,0.644-2.854,1-3.725
		c0.236-0.561,0.347-1.196,0.335-1.906c-0.014-0.708-0.487-1.304-1.42-1.782c-0.508-0.298-1.204-0.522-2.093-0.671
		c3.56,0.13,4.443,2.781,8.641,7.316c1.895,2.048,3.85,3.264,6.907,3.648c1.72,0.215,2.699,0.048,4.252-0.551
		C71.861,28.877,75.304,26.824,74.78,26.809"/>
	<polygon class="st1" points="93.651,19.497 85.552,19.497 85.552,17.491 103.96,17.491 103.96,19.497 95.861,19.497 95.861,41.186 
		93.651,41.186 	"/>
	<path class="st1" d="M106.063,29.34c0-1.809,0.307-3.47,0.906-4.986c0.609-1.518,1.443-2.831,2.513-3.936
		c1.07-1.101,2.354-1.967,3.867-2.593c1.505-0.623,3.158-0.932,4.965-0.932c1.812,0,3.462,0.31,4.97,0.932
		c1.51,0.626,2.793,1.492,3.872,2.593c1.065,1.105,1.906,2.417,2.506,3.936c0.599,1.516,0.904,3.177,0.904,4.986
		c0,1.806-0.305,3.472-0.904,5.003c-0.6,1.528-1.441,2.843-2.506,3.947c-1.079,1.105-2.362,1.964-3.872,2.578
		c-1.508,0.614-3.158,0.919-4.97,0.919c-1.806,0-3.46-0.305-4.965-0.919c-1.513-0.613-2.796-1.473-3.867-2.578
		c-1.071-1.105-1.904-2.42-2.513-3.947C106.37,32.812,106.063,31.146,106.063,29.34 M108.274,29.34c0,1.474,0.232,2.844,0.705,4.118
		c0.468,1.269,1.137,2.375,2.004,3.309c0.871,0.942,1.925,1.675,3.167,2.21c1.235,0.534,2.626,0.802,4.164,0.802
		c1.541,0,2.928-0.268,4.172-0.802c1.234-0.535,2.29-1.269,3.155-2.21c0.875-0.934,1.541-2.04,2.016-3.309
		c0.463-1.275,0.702-2.645,0.702-4.118c0-1.474-0.239-2.845-0.702-4.115c-0.475-1.274-1.141-2.379-2.016-3.315
		c-0.865-0.938-1.921-1.672-3.155-2.21c-1.244-0.534-2.632-0.803-4.172-0.803c-1.537,0-2.928,0.268-4.164,0.803
		c-1.242,0.538-2.296,1.272-3.167,2.21c-0.866,0.936-1.536,2.041-2.004,3.315C108.506,26.495,108.274,27.867,108.274,29.34"/>
	<polygon class="st1" points="135.519,17.369 138.361,17.369 152.785,33.938 152.852,33.938 152.852,17.369 155.062,17.369 
		155.062,36.289 152.216,36.289 137.793,19.72 137.727,19.72 137.727,36.289 135.519,36.289 	"/>
	<path class="st1" d="M181.1,35.058c-1.383,0.625-2.819,1.066-4.303,1.325c-1.484,0.256-2.997,0.384-4.531,0.384
		c-1.815,0-3.467-0.243-4.972-0.732c-1.511-0.492-2.8-1.178-3.868-2.06c-1.069-0.88-1.906-1.931-2.51-3.152
		c-0.599-1.222-0.901-2.556-0.901-3.996c0-1.438,0.302-2.766,0.901-3.978c0.604-1.215,1.441-2.261,2.51-3.144
		c1.069-0.88,2.357-1.566,3.868-2.072c1.505-0.494,3.157-0.741,4.972-0.741c3.518,0,6.361,0.87,8.53,2.614l-1.601,1.337
		c-0.364-0.341-0.806-0.657-1.328-0.948c-0.52-0.295-1.093-0.541-1.71-0.75c-0.611-0.202-1.252-0.365-1.916-0.478
		c-0.673-0.119-1.328-0.178-1.975-0.178c-1.548,0-2.93,0.217-4.17,0.646c-1.235,0.429-2.287,1.01-3.162,1.76
		c-0.866,0.747-1.544,1.626-2.011,2.65c-0.461,1.01-0.7,2.103-0.7,3.281c0,1.177,0.238,2.271,0.7,3.289
		c0.467,1.017,1.144,1.897,2.011,2.643c0.875,0.747,1.926,1.334,3.162,1.764c1.24,0.428,2.623,0.643,4.17,0.643
		c1.264,0,2.46-0.082,3.579-0.243c1.113-0.162,2.129-0.455,3.043-0.879v-6.361H173.2v-1.603h7.9V35.058z"/>
	<path class="st1" d="M196.928,32.787c0.58,0.802,1.331,1.397,2.258,1.79c0.923,0.393,1.987,0.589,3.162,0.589
		c0.738,0,1.431-0.089,2.078-0.27c0.648-0.18,1.209-0.428,1.684-0.749c0.484-0.318,0.863-0.709,1.146-1.162
		c0.274-0.451,0.419-0.964,0.419-1.534c0-0.657-0.178-1.199-0.522-1.628c-0.347-0.428-0.806-0.781-1.386-1.059
		c-0.587-0.271-1.238-0.509-1.961-0.705c-0.731-0.198-1.474-0.394-2.244-0.589c-0.77-0.192-1.518-0.417-2.242-0.667
		c-0.722-0.251-1.374-0.574-1.954-0.977c-0.582-0.398-1.045-0.902-1.391-1.51c-0.347-0.605-0.518-1.349-0.518-2.24
		c0-0.838,0.208-1.583,0.621-2.234c0.412-0.648,0.966-1.194,1.671-1.631c0.703-0.436,1.513-0.767,2.427-0.987
		c0.916-0.222,1.875-0.331,2.875-0.331c1.295,0,2.496,0.182,3.601,0.545c1.105,0.365,2.059,0.973,2.858,1.829l-1.904,1.095
		c-0.561-0.622-1.213-1.088-1.957-1.403c-0.75-0.311-1.635-0.467-2.666-0.467c-0.712,0-1.393,0.074-2.036,0.229
		c-0.65,0.152-1.213,0.378-1.693,0.666c-0.475,0.296-0.865,0.667-1.156,1.107c-0.288,0.451-0.432,0.972-0.432,1.583
		c0,0.943,0.3,1.665,0.904,2.176c0.599,0.505,1.355,0.908,2.263,1.2c0.904,0.295,1.884,0.554,2.939,0.777
		c1.057,0.22,2.047,0.518,2.947,0.895c0.908,0.371,1.657,0.896,2.258,1.561c0.606,0.672,0.904,1.594,0.904,2.766
		c0,0.858-0.197,1.611-0.602,2.27c-0.403,0.663-0.944,1.217-1.623,1.673c-0.681,0.453-1.467,0.799-2.36,1.029
		c-0.889,0.23-1.815,0.346-2.776,0.346c-1.566,0-3-0.214-4.316-0.653c-1.319-0.44-2.439-1.172-3.381-2.204L196.928,32.787z"/>
	<path class="st1" d="M231.732,29.048c0,1.016-0.144,1.984-0.436,2.911c-0.287,0.925-0.775,1.744-1.45,2.46
		c-0.688,0.711-1.575,1.282-2.681,1.707c-1.105,0.426-2.458,0.641-4.071,0.641c-1.606,0-2.958-0.214-4.062-0.641
		c-1.103-0.425-1.995-0.996-2.681-1.707c-0.676-0.716-1.165-1.535-1.448-2.46c-0.295-0.927-0.439-1.896-0.439-2.911V17.369h2.208
		v11.225c0,0.674,0.081,1.399,0.237,2.162c0.158,0.767,0.465,1.479,0.923,2.137c0.456,0.662,1.101,1.201,1.939,1.631
		c0.837,0.427,1.942,0.644,3.325,0.644c1.391,0,2.498-0.217,3.332-0.644c0.842-0.43,1.486-0.968,1.944-1.631
		c0.453-0.658,0.762-1.37,0.918-2.137c0.161-0.763,0.237-1.487,0.237-2.162V17.369h2.208V29.048z"/>
	<polygon class="st1" points="237.791,17.491 252.282,17.491 252.282,19.497 239.999,19.497 239.999,27.934 251.511,27.934 
		251.511,29.94 239.999,29.94 239.999,39.18 252.814,39.18 252.814,41.186 237.791,41.186 	"/>
	<polygon class="st1" points="257.64,17.491 260.481,17.491 274.909,38.244 274.974,38.244 274.974,17.491 277.18,17.491 
		277.18,41.186 274.337,41.186 259.911,20.437 259.846,20.437 259.846,41.186 257.64,41.186 	"/>
	<g>
		<path class="st2" d="M131.232,42.156h1.383v13.586h6.919v1.258h-8.302V42.156z"/>
		<path class="st2" d="M140.751,49.578c0-1.132,0.188-2.173,0.566-3.124c0.377-0.95,0.901-1.771,1.572-2.463
			s1.478-1.233,2.421-1.625c0.944-0.391,1.981-0.587,3.114-0.587c1.132,0,2.17,0.196,3.113,0.587
			c0.943,0.392,1.75,0.933,2.421,1.625s1.195,1.513,1.573,2.463c0.377,0.951,0.565,1.992,0.565,3.124s-0.188,2.177-0.565,3.134
			c-0.378,0.958-0.902,1.782-1.573,2.474s-1.478,1.23-2.421,1.614s-1.981,0.577-3.113,0.577c-1.133,0-2.17-0.192-3.114-0.577
			c-0.943-0.384-1.75-0.922-2.421-1.614s-1.195-1.517-1.572-2.474C140.939,51.755,140.751,50.71,140.751,49.578z M142.134,49.578
			c0,0.922,0.146,1.782,0.44,2.579c0.293,0.797,0.713,1.489,1.258,2.076s1.205,1.048,1.981,1.384
			c0.775,0.335,1.646,0.503,2.61,0.503c0.964,0,1.834-0.168,2.61-0.503c0.775-0.335,1.436-0.797,1.98-1.384
			c0.546-0.587,0.965-1.279,1.258-2.076c0.294-0.796,0.44-1.656,0.44-2.579s-0.146-1.782-0.44-2.579
			c-0.293-0.796-0.712-1.488-1.258-2.075c-0.545-0.587-1.205-1.048-1.98-1.384c-0.776-0.335-1.646-0.503-2.61-0.503
			c-0.965,0-1.835,0.168-2.61,0.503c-0.776,0.335-1.437,0.796-1.981,1.384c-0.545,0.587-0.965,1.279-1.258,2.075
			C142.281,47.795,142.134,48.655,142.134,49.578z"/>
		<path class="st2" d="M171.444,56.035c-0.866,0.489-1.765,0.835-2.693,1.038c-0.93,0.203-1.877,0.304-2.841,0.304
			c-1.133,0-2.17-0.192-3.114-0.577c-0.943-0.384-1.75-0.922-2.421-1.614s-1.195-1.517-1.572-2.474
			c-0.378-0.957-0.566-2.002-0.566-3.134s0.188-2.173,0.566-3.124c0.377-0.95,0.901-1.771,1.572-2.463s1.478-1.233,2.421-1.625
			c0.944-0.391,1.981-0.587,3.114-0.587c2.208,0,3.99,0.685,5.346,2.055l-1.006,1.048c-0.224-0.266-0.5-0.514-0.828-0.745
			c-0.329-0.23-0.686-0.426-1.069-0.587c-0.385-0.161-0.786-0.286-1.206-0.377c-0.419-0.091-0.831-0.136-1.236-0.136
			c-0.965,0-1.835,0.168-2.61,0.503c-0.776,0.335-1.437,0.796-1.981,1.384c-0.545,0.587-0.965,1.279-1.258,2.075
			c-0.294,0.797-0.44,1.657-0.44,2.579s0.146,1.782,0.44,2.579c0.293,0.797,0.713,1.489,1.258,2.076s1.205,1.048,1.981,1.384
			c0.775,0.335,1.646,0.503,2.61,0.503c0.796,0,1.544-0.063,2.243-0.189c0.698-0.125,1.334-0.356,1.907-0.692v-4.99h-3.563v-1.258
			h4.947V56.035z"/>
		<path class="st2" d="M175.512,42.156h1.383v14.844h-1.383V42.156z"/>
		<path class="st2" d="M181.361,54.253c0.363,0.629,0.835,1.098,1.416,1.405c0.579,0.308,1.24,0.461,1.98,0.461
			c0.462,0,0.895-0.07,1.3-0.21c0.405-0.14,0.759-0.335,1.06-0.587c0.3-0.251,0.538-0.556,0.713-0.912
			c0.174-0.356,0.262-0.758,0.262-1.206c0-0.517-0.108-0.943-0.325-1.279s-0.507-0.611-0.87-0.828s-0.772-0.402-1.227-0.556
			s-0.922-0.307-1.404-0.461c-0.482-0.153-0.951-0.328-1.405-0.524s-0.862-0.451-1.226-0.765c-0.364-0.314-0.654-0.709-0.87-1.185
			c-0.218-0.475-0.325-1.062-0.325-1.761c0-0.657,0.129-1.24,0.388-1.75s0.608-0.937,1.048-1.279
			c0.44-0.342,0.947-0.601,1.521-0.775s1.174-0.262,1.803-0.262c0.811,0,1.562,0.144,2.254,0.43c0.692,0.287,1.29,0.765,1.793,1.436
			l-1.195,0.86c-0.35-0.489-0.759-0.856-1.227-1.101c-0.469-0.245-1.024-0.367-1.667-0.367c-0.447,0-0.873,0.06-1.278,0.178
			c-0.406,0.119-0.759,0.293-1.059,0.524c-0.301,0.23-0.542,0.521-0.724,0.87c-0.182,0.349-0.272,0.762-0.272,1.237
			c0,0.741,0.188,1.311,0.565,1.708c0.378,0.398,0.85,0.713,1.416,0.944c0.565,0.23,1.181,0.433,1.845,0.608
			c0.663,0.175,1.278,0.409,1.845,0.702s1.038,0.703,1.415,1.227c0.378,0.524,0.566,1.248,0.566,2.17
			c0,0.671-0.126,1.265-0.377,1.782c-0.252,0.517-0.591,0.954-1.018,1.311c-0.426,0.356-0.919,0.625-1.478,0.807
			c-0.56,0.181-1.14,0.272-1.74,0.272c-0.979,0-1.88-0.171-2.705-0.514c-0.824-0.342-1.53-0.919-2.117-1.73L181.361,54.253z"/>
		<path class="st2" d="M195.911,43.413h-5.073v-1.258h11.531v1.258h-5.074v13.586h-1.384V43.413z"/>
		<path class="st2" d="M204.654,42.156h1.383v14.844h-1.383V42.156z"/>
		<path class="st2" d="M222.328,54.672c-0.713,0.964-1.538,1.656-2.474,2.076c-0.937,0.419-1.95,0.629-3.04,0.629
			c-1.133,0-2.17-0.192-3.114-0.577c-0.943-0.384-1.75-0.922-2.421-1.614s-1.195-1.517-1.572-2.474
			c-0.378-0.957-0.566-2.002-0.566-3.134s0.188-2.173,0.566-3.124c0.377-0.95,0.901-1.771,1.572-2.463s1.478-1.233,2.421-1.625
			c0.944-0.391,1.981-0.587,3.114-0.587c1.006,0,1.946,0.178,2.819,0.535c0.874,0.356,1.639,0.954,2.296,1.792l-1.132,0.943
			c-0.462-0.699-1.052-1.208-1.771-1.53c-0.721-0.321-1.457-0.482-2.212-0.482c-0.965,0-1.835,0.168-2.61,0.503
			c-0.776,0.335-1.437,0.796-1.981,1.384c-0.545,0.587-0.965,1.279-1.258,2.075c-0.294,0.797-0.44,1.657-0.44,2.579
			s0.146,1.782,0.44,2.579c0.293,0.797,0.713,1.489,1.258,2.076s1.205,1.048,1.981,1.384c0.775,0.335,1.646,0.503,2.61,0.503
			c0.377,0,0.769-0.045,1.174-0.137c0.405-0.09,0.8-0.23,1.185-0.419c0.384-0.189,0.751-0.426,1.101-0.713s0.657-0.632,0.923-1.038
			L222.328,54.672z"/>
		<path class="st2" d="M225.262,54.253c0.363,0.629,0.835,1.098,1.416,1.405c0.579,0.308,1.24,0.461,1.98,0.461
			c0.462,0,0.895-0.07,1.3-0.21c0.405-0.14,0.759-0.335,1.06-0.587c0.3-0.251,0.538-0.556,0.713-0.912
			c0.174-0.356,0.262-0.758,0.262-1.206c0-0.517-0.108-0.943-0.325-1.279s-0.507-0.611-0.87-0.828s-0.772-0.402-1.227-0.556
			s-0.922-0.307-1.404-0.461c-0.482-0.153-0.951-0.328-1.405-0.524s-0.862-0.451-1.226-0.765c-0.364-0.314-0.654-0.709-0.87-1.185
			c-0.218-0.475-0.325-1.062-0.325-1.761c0-0.657,0.129-1.24,0.388-1.75s0.608-0.937,1.048-1.279
			c0.44-0.342,0.947-0.601,1.521-0.775s1.174-0.262,1.803-0.262c0.811,0,1.562,0.144,2.254,0.43c0.692,0.287,1.29,0.765,1.793,1.436
			l-1.195,0.86c-0.35-0.489-0.759-0.856-1.227-1.101c-0.469-0.245-1.024-0.367-1.667-0.367c-0.447,0-0.873,0.06-1.278,0.178
			c-0.406,0.119-0.759,0.293-1.059,0.524c-0.301,0.23-0.542,0.521-0.724,0.87c-0.182,0.349-0.272,0.762-0.272,1.237
			c0,0.741,0.188,1.311,0.565,1.708c0.378,0.398,0.85,0.713,1.416,0.944c0.565,0.23,1.181,0.433,1.845,0.608
			c0.663,0.175,1.278,0.409,1.845,0.702s1.038,0.703,1.415,1.227c0.378,0.524,0.566,1.248,0.566,2.17
			c0,0.671-0.126,1.265-0.377,1.782c-0.252,0.517-0.591,0.954-1.018,1.311c-0.426,0.356-0.919,0.625-1.478,0.807
			c-0.56,0.181-1.14,0.272-1.74,0.272c-0.979,0-1.88-0.171-2.705-0.514c-0.824-0.342-1.53-0.919-2.117-1.73L225.262,54.253z"/>
	</g>
</g>
</svg>